 An exploration of how the actions of individual lives impact one another in the past, present and future, as one soul is shaped from a killer into a hero, and an act of kindness ripples across centuries to inspire a revolution.

sample:

screens:  
http://img138.imageshack.us/img138/544/grabao.png 
http://img22.imageshack.us/img22/6702/grab2e.png 
http://img560.imageshack.us/img560/1121/grab3px.png 
http://img827.imageshack.us/img827/6887/grab4q.png 
http://img141.imageshack.us/img141/9208/grab5so.png 
http://img35.imageshack.us/img35/1033/grab6c.png 
http://img201.imageshack.us/img201/2558/grab7b.png 
http://img163.imageshack.us/img163/7796/grab8k.png 
http://img703.imageshack.us/img703/6558/grab9r.png

MediaInfo 0.7.61:
General
Format                                   : AVI
Format/Info                              : Audio Video Interleave
File size                                : 705 MiB
Duration                                 : 2h 39mn
Overall bit rate                         : 616 Kbps
Writing application                      : VirtualDubMod 1.5.10.2 (build 2542/release)
Writing library                          : VirtualDubMod build 2542/release

Video
ID                                       : 0
Format                                   : MPEG-4 Visual
Format profile                           : Advanced Simple@L5
Format settings, BVOP                    : 2
Format settings, QPel                    : No
Format settings, GMC                     : No warppoints
Format settings, Matrix                  : Default (MPEG)
Codec ID                                 : XVID
Codec ID/Hint                            : XviD
Duration                                 : 2h 39mn
Bit rate                                 : 479 Kbps
Width                                    : 656 pixels
Height                                   : 240 pixels
Display aspect ratio                     : 2.733
Frame rate                               : 25.000 fps
Color space                              : YUV
Chroma subsampling                       : 4:2:0
Bit depth                                : 8 bits
Scan type                                : Progressive
Compression mode                         : Lossy
Bits/(Pixel*Frame)                       : 0.122
Stream size                              : 547 MiB (78%)
Writing library                          : XviD 1.2.1 (UTC 2008-12-04)

Audio
ID                                       : 1
Format                                   : AC-3
Format/Info                              : Audio Coding 3
Mode extension                           : CM (complete main)
Format settings, Endianness              : Big
Codec ID                                 : 2000
Duration                                 : 2h 39mn
Bit rate mode                            : Constant
Bit rate                                 : 128 Kbps
Channel(s)                               : 2 channels
Channel positions                        : Front: L R
Sampling rate                            : 48.0 KHz
Bit depth                                : 16 bits
Compression mode                         : Lossy
Stream size                              : 146 MiB (21%)
Alignment                                : Split accross interleaves
Interleave, duration                     : 40 ms (1.00 video frame)
Interleave, preload duration             : 500 ms